<svg id="svg" version="1.1" width="500" height="500" xmlns="http://www.w3.org/2000/svg" xmlns:xlink="http://www.w3.org/1999/xlink" style="display: block;"><g id="svgg"><path id="path0" d="M8.597 79.972 C 6.907 81.761,6.441 82.971,6.597 85.162 C 6.761 87.473,6.970 87.788,7.688 86.810 C 8.177 86.144,9.527 85.600,10.688 85.600 C 12.224 85.600,12.800 85.189,12.800 84.091 C 12.800 83.153,13.859 82.080,15.600 81.254 C 19.553 79.378,19.162 78.036,14.600 77.820 C 11.318 77.664,10.500 77.958,8.597 79.972 M22.950 81.317 C 22.648 81.619,22.400 82.485,22.400 83.240 C 22.400 83.995,21.680 84.802,20.800 85.032 C 18.929 85.521,18.607 88.623,20.358 89.294 C 22.626 90.165,25.622 87.057,25.401 84.062 C 25.207 81.422,24.093 80.174,22.950 81.317 M6.929 91.000 C 6.076 92.399,10.971 96.885,13.047 96.607 C 15.388 96.294,18.580 93.738,17.934 92.693 C 17.338 91.728,13.600 91.821,13.600 92.800 C 13.600 94.149,11.529 93.689,10.000 92.000 C 8.473 90.313,7.534 90.007,6.929 91.000 M21.333 92.533 C 20.413 93.454,20.751 94.400,22.000 94.400 C 22.660 94.400,23.200 93.860,23.200 93.200 C 23.200 91.951,22.254 91.613,21.333 92.533 " stroke="none" fill="#000000" fill-rule="evenodd"></path><path id="path1" d="M286.189 44.611 C 285.810 45.374,289.464 48.883,289.876 48.153 C 290.048 47.849,289.355 46.795,288.335 45.811 C 287.315 44.828,286.349 44.288,286.189 44.611 M299.200 58.847 C 299.200 59.533,299.535 59.887,299.945 59.634 C 300.354 59.381,300.916 59.540,301.192 59.987 C 301.468 60.434,302.030 60.800,302.439 60.800 C 302.849 60.800,302.568 60.080,301.814 59.200 C 300.171 57.281,299.200 57.150,299.200 58.847 M315.200 74.639 C 315.200 75.372,318.422 77.412,318.747 76.885 C 318.969 76.527,318.261 75.829,317.175 75.334 C 316.089 74.839,315.200 74.527,315.200 74.639 M5.104 85.962 C 4.582 87.323,5.331 88.800,6.545 88.800 C 7.093 88.800,7.052 88.385,6.429 87.635 C 5.897 86.994,5.694 86.094,5.978 85.635 C 6.262 85.176,6.282 84.800,6.022 84.800 C 5.762 84.800,5.349 85.323,5.104 85.962 M210.400 196.800 C 209.740 197.227,208.203 197.581,206.984 197.588 C 197.032 197.643,186.927 217.228,191.208 228.164 C 196.189 240.888,201.348 244.800,213.144 244.800 C 223.348 244.800,234.400 236.988,234.400 229.776 C 234.400 228.975,234.790 227.930,235.266 227.454 C 236.195 226.525,235.868 216.625,234.770 212.400 C 233.339 206.895,228.446 200.980,223.554 198.844 C 221.819 198.086,219.775 197.136,219.011 196.733 C 217.191 195.773,211.925 195.814,210.400 196.800 M261.600 197.194 C 240.488 203.029,235.508 233.950,254.366 242.109 C 255.925 242.783,257.825 243.664,258.589 244.067 C 259.353 244.470,263.905 244.800,268.704 244.800 C 278.314 244.800,278.400 244.754,278.400 239.535 L 278.400 236.800 270.276 236.800 C 257.797 236.800,253.608 232.862,253.603 221.123 C 253.597 207.314,261.457 201.763,276.086 205.246 C 278.228 205.756,280.351 199.988,278.630 198.335 C 276.602 196.387,266.877 195.735,261.600 197.194 M146.815 197.396 C 144.624 197.565,142.544 198.130,142.192 198.651 C 141.541 199.619,141.503 240.853,142.152 243.400 C 142.552 244.974,160.454 245.530,164.162 244.083 C 165.173 243.689,167.502 242.921,169.338 242.376 C 173.152 241.244,180.800 234.439,180.800 232.178 C 180.800 231.376,181.240 230.280,181.777 229.743 C 182.417 229.103,182.762 225.923,182.777 220.532 C 182.829 201.614,173.121 195.368,146.815 197.396 M164.400 205.219 C 179.172 208.852,174.735 235.299,159.000 237.404 C 151.086 238.463,151.200 238.707,151.200 220.697 C 151.200 202.615,151.653 202.084,164.400 205.219 M218.444 205.223 C 226.321 209.296,227.689 228.402,220.581 235.041 C 215.443 239.839,206.188 238.194,203.475 232.000 C 201.161 226.716,200.800 225.180,200.800 220.619 C 200.800 207.985,209.353 200.522,218.444 205.223 M123.339 235.452 C 119.919 239.092,121.975 244.800,126.706 244.800 C 131.913 244.800,134.709 238.641,131.049 235.231 C 128.729 233.069,125.491 233.162,123.339 235.452 M61.867 375.676 C 61.867 376.294,62.347 376.800,62.933 376.800 C 63.520 376.800,64.000 376.479,64.000 376.086 C 64.000 375.693,63.520 375.187,62.933 374.962 C 62.347 374.737,61.867 375.058,61.867 375.676 M70.553 379.771 C 69.354 380.000,68.795 380.593,68.960 381.462 C 69.297 383.241,73.234 383.707,73.873 382.043 C 74.135 381.359,73.980 380.800,73.528 380.800 C 73.076 380.800,72.928 380.440,73.200 380.000 C 73.472 379.560,73.403 379.249,73.047 379.309 C 72.691 379.369,71.569 379.577,70.553 379.771 M335.200 383.200 C 335.200 384.267,335.733 384.800,336.800 384.800 C 337.867 384.800,338.400 384.267,338.400 383.200 C 338.400 382.133,337.867 381.600,336.800 381.600 C 335.733 381.600,335.200 382.133,335.200 383.200 " stroke="none" fill="#ffffff" fill-rule="evenodd"></path><path id="path2" d="M68.200 25.195 C 65.890 27.458,64.000 29.842,64.000 30.494 C 64.000 31.147,63.628 32.052,63.174 32.506 C 61.943 33.737,62.037 366.199,63.269 367.683 C 63.769 368.286,63.997 369.254,63.775 369.833 C 63.547 370.426,64.575 371.711,66.128 372.775 C 67.645 373.815,69.239 375.325,69.671 376.132 C 70.103 376.940,70.984 377.600,71.628 377.600 C 72.273 377.600,72.800 377.964,72.800 378.408 C 72.800 379.865,326.004 379.441,327.215 377.982 C 327.755 377.332,328.692 376.800,329.298 376.800 C 329.904 376.800,330.400 376.501,330.400 376.135 C 330.400 375.770,331.285 374.997,332.367 374.418 C 333.449 373.839,335.159 371.708,336.167 369.682 L 338.000 366.000 338.226 234.800 C 338.350 162.640,338.254 102.790,338.011 101.800 L 337.570 100.000 306.813 100.000 C 271.048 100.000,270.686 99.944,264.718 93.511 C 259.230 87.596,259.200 87.369,259.200 52.083 L 259.200 20.752 165.800 20.917 L 72.400 21.081 68.200 25.195 M166.561 196.263 C 168.630 196.809,170.580 197.513,170.895 197.828 C 171.209 198.143,171.985 198.400,172.618 198.400 C 179.929 198.400,187.376 216.729,184.404 227.408 C 183.569 230.410,181.237 235.181,180.600 235.191 C 180.270 235.196,180.000 235.710,180.000 236.333 C 180.000 237.742,174.230 242.400,172.485 242.400 C 171.778 242.400,171.200 242.760,171.200 243.200 C 171.200 243.640,170.552 244.000,169.760 244.000 C 168.968 244.000,167.919 244.401,167.430 244.890 C 166.394 245.926,142.578 246.327,141.000 245.334 C 138.901 244.015,139.634 197.947,141.778 196.445 C 144.009 194.883,160.861 194.759,166.561 196.263 M224.730 197.692 C 229.524 200.145,235.200 206.247,235.200 208.947 C 235.200 209.570,235.571 210.451,236.024 210.904 C 237.061 211.941,237.151 228.171,236.131 230.144 C 235.716 230.945,234.710 232.960,233.894 234.623 C 225.580 251.571,199.379 250.785,191.552 233.353 C 181.016 209.886,202.802 186.468,224.730 197.692 M279.240 196.421 C 281.953 197.824,281.892 197.590,280.660 201.907 C 279.249 206.849,279.035 206.981,273.490 206.327 C 259.454 204.672,251.106 213.926,255.311 226.481 C 257.587 233.277,271.249 239.651,274.000 235.200 C 274.894 233.753,279.196 234.246,279.235 235.800 C 279.254 236.570,279.747 238.537,280.331 240.171 C 283.665 249.511,257.188 249.133,248.125 239.710 C 236.406 227.526,240.518 204.408,255.600 197.685 C 256.920 197.096,258.540 196.317,259.200 195.954 C 261.422 194.732,276.659 195.086,279.240 196.421 M153.600 220.800 L 153.600 236.000 157.057 236.000 C 163.105 236.000,170.400 230.769,170.400 226.432 C 170.400 225.477,170.795 223.956,171.279 223.053 C 171.929 221.837,171.884 220.177,171.105 216.665 C 169.351 208.758,164.893 205.600,155.488 205.600 L 153.600 205.600 153.600 220.800 M208.239 207.121 C 198.202 213.423,201.865 236.000,212.924 236.000 C 219.901 236.000,223.558 230.582,223.453 220.400 C 223.337 209.050,215.734 202.415,208.239 207.121 M130.699 232.762 C 135.354 234.531,135.482 242.876,130.898 245.671 C 127.684 247.630,126.002 247.595,123.068 245.506 C 115.161 239.876,121.512 229.269,130.699 232.762 " stroke="none" fill="#00acec" fill-rule="evenodd"></path><path id="path3" d="M73.960 19.264 C 73.701 19.683,73.154 19.819,72.745 19.566 C 72.335 19.313,72.000 19.487,72.000 19.953 C 72.000 20.419,73.260 20.800,74.800 20.800 C 76.550 20.800,77.600 20.414,77.600 19.770 C 77.600 18.562,74.648 18.151,73.960 19.264 M260.000 50.257 C 260.000 86.325,260.040 86.583,266.671 93.332 C 269.733 96.447,271.527 97.604,273.966 98.035 C 278.480 98.832,340.006 99.376,339.975 98.618 C 339.920 97.305,337.759 95.200,336.465 95.200 C 335.717 95.200,335.317 94.858,335.575 94.440 C 335.833 94.022,335.284 93.273,334.354 92.775 C 333.424 92.278,332.862 91.672,333.104 91.429 C 333.646 90.887,330.084 88.000,328.874 88.000 C 328.393 88.000,328.000 87.280,328.000 86.400 C 328.000 85.352,327.467 84.800,326.454 84.800 C 325.604 84.800,324.678 84.075,324.396 83.188 C 324.115 82.302,323.577 81.767,323.200 82.000 C 322.823 82.233,322.285 81.698,322.004 80.812 C 321.722 79.925,321.135 79.200,320.699 79.200 C 320.263 79.200,320.128 78.840,320.400 78.400 C 320.821 77.719,320.184 77.404,318.400 77.412 C 318.180 77.413,317.280 76.681,316.400 75.784 C 315.520 74.888,315.306 74.445,315.924 74.801 C 316.678 75.235,316.860 75.144,316.476 74.524 C 316.162 74.016,315.387 73.600,314.753 73.600 C 314.119 73.600,313.600 72.880,313.600 72.000 C 313.600 71.100,313.067 70.400,312.380 70.400 C 311.709 70.400,310.818 69.500,310.400 68.400 C 309.982 67.300,309.328 66.400,308.947 66.400 C 308.566 66.400,306.541 64.781,304.446 62.803 C 302.352 60.824,300.315 59.406,299.919 59.650 C 299.524 59.894,299.200 59.173,299.200 58.047 C 299.200 56.557,298.779 56.000,297.654 56.000 C 296.804 56.000,295.895 55.330,295.635 54.512 C 295.208 53.165,289.600 47.434,289.600 48.344 C 289.600 48.555,288.700 47.827,287.600 46.727 C 286.500 45.627,285.600 44.192,285.600 43.539 C 285.600 42.885,284.970 42.123,284.200 41.847 C 282.780 41.337,280.000 38.819,280.000 38.043 C 280.000 37.090,277.267 34.511,276.657 34.888 C 276.296 35.112,276.000 34.733,276.000 34.047 C 276.000 33.333,275.316 32.800,274.400 32.800 C 273.520 32.800,272.890 32.350,273.000 31.800 C 273.110 31.250,272.723 30.899,272.141 31.020 C 271.558 31.141,271.264 30.944,271.488 30.582 C 272.114 29.568,270.805 27.918,269.186 27.680 C 268.387 27.563,267.633 26.783,267.510 25.948 C 267.307 24.564,266.343 23.741,265.191 23.969 C 264.505 24.104,262.774 22.167,262.180 20.600 C 260.367 15.810,260.000 20.797,260.000 50.257 M68.800 21.600 C 68.800 22.040,68.260 22.400,67.600 22.400 C 66.940 22.400,66.400 22.760,66.400 23.200 C 66.400 24.363,67.935 24.179,69.257 22.857 C 70.597 21.517,70.717 20.800,69.600 20.800 C 69.160 20.800,68.800 21.160,68.800 21.600 M64.200 25.330 C 63.650 25.552,63.200 26.243,63.200 26.867 C 63.200 27.490,62.840 28.000,62.400 28.000 C 61.960 28.000,61.600 28.540,61.600 29.200 C 61.600 29.860,61.960 30.400,62.400 30.400 C 62.840 30.400,63.200 29.860,63.200 29.200 C 63.200 28.540,63.547 28.000,63.972 28.000 C 64.396 28.000,65.129 27.280,65.600 26.400 C 66.451 24.811,66.117 24.556,64.200 25.330 M59.852 32.600 C 59.398 34.497,59.950 36.800,60.859 36.800 C 61.266 36.800,61.600 35.540,61.600 34.000 C 61.600 31.090,60.436 30.158,59.852 32.600 M215.600 195.781 C 216.920 195.969,218.342 196.455,218.760 196.862 C 219.178 197.268,220.078 197.587,220.760 197.572 C 221.547 197.554,221.269 197.126,220.000 196.400 C 218.900 195.771,216.920 195.298,215.600 195.348 L 213.200 195.440 215.600 195.781 M143.400 196.895 L 140.800 197.646 140.800 221.208 L 140.800 244.770 142.600 245.217 C 143.590 245.463,148.540 245.547,153.600 245.403 L 162.800 245.142 152.654 244.971 C 143.745 244.821,142.464 244.629,142.152 243.400 C 141.425 240.544,141.571 199.574,142.312 198.458 C 142.908 197.560,145.572 197.304,154.781 197.258 C 161.223 197.226,165.662 196.966,164.646 196.680 C 161.836 195.888,146.345 196.045,143.400 196.895 M205.575 196.753 C 197.773 199.123,190.199 208.517,190.520 215.424 L 190.640 218.000 190.962 215.600 C 192.037 207.579,200.888 197.621,206.972 197.588 C 208.197 197.581,209.740 197.227,210.400 196.800 C 211.893 195.835,208.698 195.804,205.575 196.753 M260.000 196.800 C 258.425 197.818,261.232 197.818,263.600 196.800 C 265.065 196.170,265.032 196.109,263.200 196.068 C 262.100 196.044,260.660 196.373,260.000 196.800 M274.000 196.937 C 276.200 197.355,278.284 197.976,278.630 198.318 C 279.718 199.392,278.324 205.489,276.904 205.867 C 275.799 206.161,275.817 206.229,277.025 206.307 C 277.809 206.358,278.645 205.770,278.884 205.000 C 279.122 204.230,279.651 202.975,280.058 202.211 C 282.060 198.461,278.982 195.886,272.743 196.089 C 270.348 196.168,270.508 196.275,274.000 196.937 M168.000 198.123 C 178.828 201.706,182.761 207.571,182.782 220.162 C 182.792 225.953,182.473 229.047,181.798 229.722 C 181.249 230.271,180.800 231.376,180.800 232.178 C 180.800 232.980,178.921 235.428,176.625 237.618 C 174.329 239.808,172.889 241.600,173.425 241.600 C 173.961 241.600,174.400 241.318,174.400 240.972 C 174.400 240.627,175.433 239.734,176.697 238.988 C 183.776 234.806,186.506 217.603,181.610 208.025 C 179.925 204.731,174.205 199.200,172.482 199.200 C 171.829 199.200,171.072 198.840,170.800 198.400 C 170.528 197.960,169.517 197.628,168.553 197.663 C 167.443 197.703,167.240 197.872,168.000 198.123 M222.800 198.400 C 223.072 198.840,223.764 199.200,224.339 199.200 C 225.860 199.200,229.893 203.129,231.977 206.642 C 234.035 210.110,235.168 210.138,233.275 206.674 C 231.396 203.236,230.264 202.002,226.875 199.703 C 223.699 197.547,221.922 196.979,222.800 198.400 M256.000 198.400 C 256.000 198.840,255.511 199.200,254.913 199.200 C 250.944 199.200,242.248 211.415,242.509 216.624 C 242.617 218.781,242.621 218.782,242.984 216.800 C 244.069 210.886,251.603 200.062,254.696 199.975 C 256.345 199.928,258.949 197.600,257.353 197.600 C 256.609 197.600,256.000 197.960,256.000 198.400 M152.200 204.906 C 151.472 205.644,151.200 209.977,151.200 220.836 C 151.200 238.110,151.321 238.424,157.600 237.545 L 161.200 237.040 156.983 236.920 L 152.766 236.800 152.983 221.000 L 153.200 205.200 156.131 204.956 C 164.054 204.296,171.789 210.166,172.120 217.090 C 172.239 219.593,172.241 219.594,172.579 217.338 C 172.960 214.801,170.563 209.086,168.288 207.104 C 165.491 204.669,153.985 203.096,152.200 204.906 M207.600 205.509 C 201.866 209.100,198.261 222.209,201.636 227.200 C 202.205 228.041,202.301 226.964,201.959 223.600 C 200.175 206.088,215.124 197.698,223.000 211.789 C 224.359 214.221,224.297 226.540,222.909 229.863 C 219.490 238.044,208.172 239.294,204.355 231.912 C 203.655 230.559,202.922 229.611,202.727 229.807 C 202.531 230.002,202.838 231.061,203.408 232.161 C 207.595 240.231,219.228 239.588,223.676 231.040 C 225.756 227.043,225.201 213.403,222.804 209.607 C 219.355 204.143,212.661 202.339,207.600 205.509 M262.633 205.125 C 249.674 209.842,250.926 237.265,264.076 236.720 C 265.883 236.645,265.898 236.609,264.315 236.120 C 257.486 234.012,254.400 229.219,254.400 220.718 C 254.400 209.856,259.139 205.175,270.000 205.311 C 273.503 205.354,275.001 205.143,274.000 204.747 C 271.697 203.834,265.625 204.036,262.633 205.125 M234.425 211.600 C 234.425 212.480,234.773 213.740,235.200 214.400 C 235.842 215.394,235.975 215.325,235.975 214.000 C 235.975 213.120,235.627 211.860,235.200 211.200 C 234.558 210.206,234.425 210.275,234.425 211.600 M236.240 221.600 C 236.240 224.020,236.390 225.010,236.573 223.800 C 236.756 222.590,236.756 220.610,236.573 219.400 C 236.390 218.190,236.240 219.180,236.240 221.600 M189.840 222.400 C 189.840 224.820,189.990 225.810,190.173 224.600 C 190.356 223.390,190.356 221.410,190.173 220.200 C 189.990 218.990,189.840 219.980,189.840 222.400 M171.403 225.623 C 170.327 230.246,167.784 233.516,163.699 235.531 C 161.908 236.414,161.632 236.769,162.724 236.782 C 166.865 236.831,173.228 228.344,172.659 223.532 C 172.454 221.797,172.192 222.233,171.403 225.623 M242.512 226.400 C 242.512 227.500,242.822 229.120,243.200 230.000 C 243.827 231.458,243.888 231.423,243.888 229.600 C 243.888 228.500,243.578 226.880,243.200 226.000 C 242.573 224.542,242.512 224.577,242.512 226.400 M190.454 228.209 C 189.967 240.891,211.394 250.584,224.124 243.441 C 228.078 241.222,234.453 234.339,234.349 232.400 C 234.325 231.960,233.877 232.296,233.353 233.147 C 223.667 248.876,200.387 249.141,193.510 233.600 C 192.828 232.060,191.874 229.900,191.389 228.800 C 190.746 227.340,190.494 227.180,190.454 228.209 M234.933 227.733 C 234.640 228.027,234.423 229.017,234.451 229.933 C 234.497 231.466,234.563 231.446,235.268 229.684 C 236.051 227.725,235.889 226.778,234.933 227.733 M244.051 232.400 C 243.579 241.187,272.141 250.944,278.812 244.274 C 279.532 243.554,279.743 242.180,279.440 240.194 C 278.791 235.942,278.337 235.455,275.600 236.071 L 273.200 236.611 275.800 236.705 C 278.480 236.803,279.381 239.712,277.914 243.535 C 277.359 244.983,261.171 245.429,258.589 244.067 C 257.825 243.664,255.899 242.771,254.309 242.081 C 251.682 240.943,247.494 236.871,245.047 233.077 C 244.523 232.265,244.075 231.960,244.051 232.400 M122.539 234.652 C 119.205 238.201,121.072 245.407,125.400 245.692 C 131.117 246.068,133.600 244.081,133.600 239.129 C 133.600 233.214,126.565 230.367,122.539 234.652 M131.049 235.231 C 133.282 237.312,133.287 240.578,131.061 242.948 C 128.735 245.424,124.554 245.461,122.845 243.022 C 118.850 237.317,126.000 230.527,131.049 235.231 M164.000 244.000 C 163.006 244.642,163.075 244.775,164.400 244.775 C 165.280 244.775,166.540 244.427,167.200 244.000 C 168.194 243.358,168.125 243.225,166.800 243.225 C 165.920 243.225,164.660 243.573,164.000 244.000 M59.797 365.000 C 59.612 365.550,59.632 366.660,59.841 367.468 C 60.295 369.218,61.568 367.712,61.588 365.400 C 61.602 363.795,60.300 363.504,59.797 365.000 M338.400 365.514 C 338.400 366.347,338.868 367.208,339.440 367.428 C 340.115 367.687,340.480 367.155,340.480 365.913 C 340.480 364.861,340.012 364.000,339.440 364.000 C 338.868 364.000,338.400 364.681,338.400 365.514 M336.800 370.800 C 336.800 371.460,336.440 372.000,336.000 372.000 C 335.560 372.000,335.200 372.540,335.200 373.200 C 335.200 373.860,334.780 374.400,334.267 374.400 C 333.753 374.400,333.522 374.588,333.752 374.819 C 334.492 375.558,336.800 374.267,336.800 373.114 C 336.800 372.501,337.100 372.000,337.467 372.000 C 337.833 372.000,338.133 371.460,338.133 370.800 C 338.133 370.140,337.833 369.600,337.467 369.600 C 337.100 369.600,336.800 370.140,336.800 370.800 M65.600 375.620 C 65.600 375.769,66.713 376.684,68.073 377.652 C 70.475 379.362,70.517 379.365,69.513 377.758 C 68.654 376.383,65.600 374.715,65.600 375.620 M331.200 376.425 C 331.200 377.719,332.450 378.013,333.148 376.884 C 333.392 376.490,333.053 375.961,332.395 375.709 C 331.669 375.430,331.200 375.711,331.200 376.425 M73.256 379.909 C 72.751 380.727,75.118 381.502,76.600 381.003 C 77.150 380.818,77.600 380.337,77.600 379.933 C 77.600 378.992,73.836 378.971,73.256 379.909 M323.200 380.400 C 323.200 381.656,324.591 381.937,326.735 381.114 C 328.824 380.313,328.165 379.200,325.600 379.200 C 324.000 379.200,323.200 379.600,323.200 380.400 " stroke="none" fill="#99dcf7" fill-rule="evenodd"></path><path id="path4" d="M77.600 19.560 C 77.600 20.181,76.790 20.804,75.800 20.944 C 74.810 21.085,115.670 21.098,166.600 20.974 L 259.200 20.749 259.200 52.082 C 259.200 87.369,259.230 87.596,264.718 93.511 C 270.686 99.944,271.048 100.000,306.813 100.000 L 337.570 100.000 338.011 101.800 C 338.254 102.790,338.350 162.640,338.226 234.800 L 338.000 366.000 336.142 369.737 C 335.119 371.792,333.769 373.671,333.142 373.912 C 331.357 374.596,331.803 376.001,333.800 375.988 C 335.256 375.978,335.370 375.827,334.400 375.200 C 333.600 374.683,333.533 374.420,334.200 374.412 C 334.750 374.406,335.200 373.860,335.200 373.200 C 335.200 372.540,335.560 372.000,336.000 372.000 C 336.440 372.000,336.800 371.460,336.800 370.800 C 336.800 370.140,337.160 369.600,337.600 369.600 C 338.040 369.600,338.400 368.340,338.400 366.800 C 338.400 364.844,338.762 364.000,339.600 364.000 C 340.662 364.000,340.800 348.733,340.800 231.400 L 340.800 98.800 309.000 98.712 C 291.510 98.663,275.745 98.362,273.966 98.043 C 269.569 97.255,263.124 90.746,261.306 85.257 C 259.379 79.441,259.320 18.768,261.242 19.505 C 261.952 19.778,262.274 19.644,261.995 19.192 C 261.135 17.800,77.600 18.166,77.600 19.560 M69.600 22.400 C 68.966 23.280,67.536 24.028,66.423 24.063 C 65.311 24.098,64.847 24.307,65.394 24.528 C 66.787 25.090,65.035 28.261,63.629 27.722 C 62.918 27.449,62.711 27.815,62.984 28.860 C 63.205 29.707,62.985 30.400,62.493 30.400 C 61.981 30.400,61.600 31.800,61.600 33.686 C 61.600 36.277,61.347 36.874,60.400 36.511 C 59.336 36.102,59.200 54.598,59.200 200.025 C 59.200 345.247,59.337 364.000,60.400 364.000 C 61.267 364.000,61.600 364.889,61.600 367.200 C 61.600 369.511,61.933 370.400,62.800 370.400 C 64.174 370.400,64.395 368.715,63.179 367.499 C 62.029 366.349,62.024 33.656,63.174 32.506 C 63.628 32.052,64.000 31.098,64.000 30.387 C 64.000 29.676,65.800 27.522,68.000 25.600 C 71.756 22.319,72.825 20.800,71.377 20.800 C 71.034 20.800,70.234 21.520,69.600 22.400 M14.400 76.714 C 14.400 77.921,17.015 78.509,17.934 77.509 C 18.568 76.818,18.532 76.717,17.800 77.130 C 17.250 77.440,16.800 77.313,16.800 76.847 C 16.800 76.381,16.260 76.000,15.600 76.000 C 14.940 76.000,14.400 76.321,14.400 76.714 M141.668 196.600 C 139.576 198.314,139.338 244.852,141.420 245.274 C 141.981 245.387,142.071 245.297,141.620 245.073 C 141.088 244.809,140.800 236.419,140.800 221.171 L 140.800 197.675 143.800 196.842 C 150.024 195.114,166.186 196.086,170.589 198.453 C 171.353 198.864,172.433 199.206,172.989 199.212 C 173.545 199.219,175.710 200.983,177.800 203.132 C 179.890 205.281,181.600 206.702,181.600 206.290 C 181.600 204.980,174.311 198.400,172.860 198.400 C 172.094 198.400,171.209 198.143,170.895 197.828 C 168.149 195.082,144.722 194.098,141.668 196.600 M205.600 195.992 C 204.798 196.504,205.861 196.596,208.800 196.267 C 211.220 195.997,213.350 195.646,213.533 195.488 C 214.317 194.811,206.689 195.296,205.600 195.992 M222.800 197.546 C 230.442 201.093,234.638 206.556,236.051 214.800 L 236.600 218.000 236.700 214.647 C 236.755 212.803,236.440 211.072,236.000 210.800 C 235.560 210.528,235.200 209.745,235.200 209.060 C 235.200 205.048,223.330 194.979,218.931 195.259 C 218.419 195.292,220.160 196.321,222.800 197.546 M259.200 195.980 C 258.540 196.358,256.650 197.254,255.000 197.971 C 253.350 198.688,252.000 199.621,252.000 200.044 C 252.000 200.729,254.970 199.483,256.000 198.366 C 256.716 197.590,262.722 196.011,266.000 195.737 C 268.446 195.532,268.163 195.448,264.800 195.382 C 262.380 195.333,259.860 195.603,259.200 195.980 M272.000 195.733 C 276.533 196.181,280.702 197.736,281.071 199.116 C 281.365 200.214,281.428 200.200,281.507 199.021 C 281.643 197.000,277.470 195.180,273.040 195.328 C 270.001 195.429,269.784 195.514,272.000 195.733 M200.400 198.302 C 199.080 199.124,196.920 201.013,195.600 202.499 L 193.200 205.200 195.992 202.800 C 197.528 201.480,198.908 200.130,199.059 199.800 C 199.210 199.470,199.753 199.189,200.267 199.175 C 201.385 199.144,204.635 196.799,203.553 196.803 C 203.139 196.805,201.720 197.479,200.400 198.302 M247.891 203.317 C 244.809 206.616,241.574 213.778,241.700 217.024 C 241.794 219.448,241.832 219.411,242.346 216.400 C 243.127 211.816,245.422 207.257,248.689 203.800 C 250.249 202.150,251.236 200.800,250.883 200.800 C 250.531 200.800,249.184 201.932,247.891 203.317 M279.516 203.000 C 279.278 203.770,278.692 205.120,278.213 206.000 C 277.454 207.395,277.502 207.469,278.583 206.576 C 279.265 206.012,279.993 204.662,280.200 203.576 C 280.634 201.309,280.163 200.913,279.516 203.000 M153.333 205.333 C 153.040 205.627,152.800 212.827,152.800 221.333 L 152.800 236.800 156.748 236.800 C 162.498 236.800,170.477 232.416,170.367 229.317 C 170.350 228.813,169.360 229.512,168.167 230.872 C 165.277 234.167,161.314 236.000,157.077 236.000 L 153.600 236.000 153.600 220.686 L 153.600 205.372 158.600 205.834 C 161.708 206.121,162.994 206.034,162.000 205.604 C 160.076 204.772,154.082 204.585,153.333 205.333 M208.744 205.746 C 199.914 209.445,199.414 231.160,208.057 235.629 C 215.407 239.430,225.283 232.506,223.766 224.614 C 223.468 223.059,223.402 223.118,223.309 225.026 C 222.586 239.787,204.419 239.501,202.876 224.704 C 200.782 204.622,220.135 197.185,223.445 216.800 C 223.737 218.532,223.797 218.468,223.891 216.323 C 224.227 208.688,215.790 202.796,208.744 205.746 M264.800 205.527 C 263.604 205.867,265.532 206.106,269.600 206.121 C 275.024 206.142,275.753 206.020,273.200 205.520 C 269.369 204.768,267.467 204.770,264.800 205.527 M167.200 209.074 C 168.740 210.674,170.136 211.987,170.303 211.991 C 171.048 212.012,166.540 206.848,165.531 206.526 C 164.909 206.327,165.660 207.473,167.200 209.074 M259.529 207.818 C 257.107 209.821,254.397 214.012,254.418 215.723 C 254.427 216.540,255.098 215.740,255.917 213.936 C 256.733 212.141,258.615 209.715,260.100 208.545 C 261.585 207.375,262.440 206.422,262.000 206.427 C 261.560 206.432,260.448 207.058,259.529 207.818 M183.471 212.800 C 183.750 213.900,183.983 215.610,183.989 216.600 C 183.995 217.590,184.312 218.400,184.693 218.400 C 185.490 218.400,184.515 212.223,183.583 211.368 C 183.243 211.056,183.192 211.700,183.471 212.800 M170.468 214.000 C 170.544 216.733,171.877 219.284,171.932 216.800 C 171.956 215.700,171.627 214.260,171.200 213.600 C 170.560 212.610,170.432 212.679,170.468 214.000 M189.309 216.512 C 188.675 221.138,188.741 226.370,189.456 228.163 C 189.755 228.912,190.038 225.762,190.085 221.163 C 190.181 211.854,190.052 211.086,189.309 216.512 M183.669 225.787 C 183.349 228.310,182.753 230.582,182.344 230.835 C 181.935 231.088,181.611 231.723,181.625 232.247 C 181.639 232.771,182.165 232.521,182.793 231.692 C 184.022 230.068,185.195 223.968,184.608 222.250 C 184.411 221.673,183.988 223.264,183.669 225.787 M170.976 223.465 C 170.659 224.271,170.423 225.711,170.451 226.665 C 170.499 228.311,170.541 228.300,171.280 226.450 C 171.709 225.377,171.945 223.937,171.806 223.250 C 171.598 222.222,171.451 222.260,170.976 223.465 M241.700 225.484 C 241.471 233.478,253.023 247.259,258.439 245.454 C 258.977 245.274,257.838 244.609,255.908 243.975 C 249.262 241.792,243.603 234.289,242.395 226.059 L 241.800 222.000 241.700 225.484 M254.456 226.153 C 254.425 227.117,254.760 228.128,255.200 228.400 C 256.146 228.985,256.146 228.202,255.200 226.000 C 254.537 224.457,254.510 224.463,254.456 226.153 M236.109 226.535 C 236.049 227.269,235.767 228.529,235.482 229.335 C 235.083 230.466,235.189 230.593,235.950 229.892 C 236.492 229.393,236.774 228.133,236.577 227.092 C 236.379 226.052,236.169 225.801,236.109 226.535 M256.374 230.401 C 256.972 231.906,262.690 236.011,264.128 235.968 C 264.718 235.950,264.120 235.368,262.800 234.673 C 261.480 233.978,259.387 232.463,258.149 231.306 C 256.911 230.149,256.112 229.742,256.374 230.401 M234.443 232.000 C 234.271 234.495,228.695 240.828,224.607 243.172 C 222.293 244.499,220.728 245.588,221.130 245.592 C 225.296 245.635,236.134 234.742,234.910 231.741 C 234.674 231.162,234.494 231.262,234.443 232.000 M122.661 233.148 C 114.921 238.745,122.842 250.583,131.000 245.609 C 132.430 244.737,133.600 243.797,133.600 243.520 C 133.600 243.243,132.764 243.564,131.741 244.234 C 126.427 247.716,120.800 245.199,120.800 239.339 C 120.800 233.689,125.768 231.236,131.440 234.087 C 133.858 235.303,133.927 235.298,132.682 233.998 C 130.828 232.061,124.864 231.555,122.661 233.148 M193.080 236.400 C 194.964 240.306,201.623 245.619,204.589 245.582 C 205.365 245.573,204.512 244.889,202.693 244.063 C 199.747 242.725,196.782 240.072,193.118 235.494 C 192.052 234.162,192.048 234.260,193.080 236.400 M274.000 235.200 C 273.728 235.640,271.637 236.061,269.353 236.134 C 265.793 236.250,265.637 236.314,268.260 236.586 C 269.944 236.761,272.899 236.567,274.828 236.156 C 277.303 235.628,278.444 235.671,278.705 236.304 C 278.908 236.797,279.102 236.570,279.137 235.800 C 279.207 234.242,274.903 233.739,274.000 235.200 M178.320 237.533 C 176.118 239.713,173.609 241.600,172.914 241.600 C 172.546 241.600,171.046 242.199,169.579 242.931 C 168.112 243.662,165.806 244.525,164.456 244.849 L 162.000 245.436 164.553 245.518 C 165.957 245.563,167.328 245.240,167.600 244.800 C 167.872 244.360,168.793 244.000,169.647 244.000 C 170.501 244.000,171.200 243.640,171.200 243.200 C 171.200 242.760,171.830 242.395,172.600 242.388 C 174.067 242.376,180.694 237.199,180.000 236.608 C 179.780 236.420,179.024 236.837,178.320 237.533 M279.523 240.194 C 279.775 242.208,279.503 243.583,278.692 244.394 C 278.028 245.057,277.816 245.600,278.219 245.600 C 280.323 245.600,281.318 242.827,280.228 240.000 L 279.149 237.200 279.523 240.194 M150.214 246.180 C 151.652 246.358,153.812 246.354,155.014 246.172 C 156.216 245.989,155.040 245.843,152.400 245.848 C 149.760 245.852,148.776 246.002,150.214 246.180 M209.215 246.468 C 211.281 247.275,215.346 247.337,216.538 246.579 C 217.053 246.251,215.260 245.953,212.552 245.916 C 209.459 245.874,208.219 246.079,209.215 246.468 M262.680 246.588 C 263.907 247.372,271.188 247.258,273.200 246.424 C 274.205 246.007,272.377 245.805,268.280 245.880 C 264.694 245.946,262.174 246.264,262.680 246.588 M63.212 372.600 C 63.230 374.675,64.175 375.663,66.267 375.794 C 67.295 375.858,68.777 376.651,69.561 377.555 C 71.068 379.293,72.800 379.744,72.800 378.400 C 72.800 377.960,72.440 377.600,72.001 377.600 C 71.561 377.600,69.718 376.160,67.904 374.400 C 64.290 370.892,63.194 370.472,63.212 372.600 M330.400 376.000 C 330.400 376.440,329.904 376.800,329.298 376.800 C 328.692 376.800,327.748 377.340,327.200 378.000 C 326.384 378.983,326.439 379.200,327.502 379.200 C 328.216 379.200,328.800 378.840,328.800 378.400 C 328.800 377.960,329.340 377.600,330.000 377.600 C 330.660 377.600,331.200 377.060,331.200 376.400 C 331.200 375.740,331.020 375.200,330.800 375.200 C 330.580 375.200,330.400 375.560,330.400 376.000 M196.140 378.987 C 93.177 379.178,78.130 379.355,77.093 380.393 C 76.042 381.444,90.205 381.583,199.552 381.595 C 309.137 381.607,323.200 381.472,323.200 380.404 C 323.200 379.548,322.333 379.197,320.200 379.189 C 318.550 379.183,316.480 379.086,315.600 378.973 C 314.720 378.860,260.963 378.866,196.140 378.987 " stroke="none" fill="#80bfff" fill-rule="evenodd"></path></g></svg>