<svg xmlns="http://www.w3.org/2000/svg" width="9" height="17" viewBox="0 0 9 17">
  <path fill="#FFFFFF" fill-rule="evenodd" d="M24.6785714,15.7723214 L23.1015625,15.7723214 C22.5256668,15.7723214 22.1372778,15.8928559 21.9363839,16.1339286 C21.7354901,16.3750012 21.6350446,16.7366047 21.6350446,17.21875 L21.6350446,19.1171875 L24.578125,19.1171875 L24.1863839,22.0904018 L21.6350446,22.0904018 L21.6350446,29.7142857 L18.5613839,29.7142857 L18.5613839,22.0904018 L16,22.0904018 L16,19.1171875 L18.5613839,19.1171875 L18.5613839,16.9274554 C18.5613839,15.6819134 18.9095947,14.7159633 19.6060268,14.0295759 C20.3024588,13.3431885 21.2299049,13 22.3883929,13 C23.3727728,13 24.136158,13.0401782 24.6785714,13.1205357 L24.6785714,15.7723214 Z" transform="translate(-16 -13)"/>
</svg>
