<svg xmlns="http://www.w3.org/2000/svg" width="14" height="18" viewBox="0 0 14 18">
  <path fill="#FFFFFF" fill-rule="evenodd" d="M22.84375,21.9375 C23.3125023,22.3125019 23.6640613,22.6093739 23.8984375,22.828125 C24.1328137,23.0468761 24.3671863,23.3906227 24.6015625,23.859375 C24.8359387,24.3281273 24.953125,24.8281223 24.953125,25.359375 C24.953125,26.6093812 24.3671934,27.6953079 23.1953125,28.6171875 C22.0234316,29.5390671 20.4218852,30 18.390625,30 C16.6406163,30 15.3046921,29.6406286 14.3828125,28.921875 C13.4609329,28.2031214 13,27.3593798 13,26.390625 C13,25.1406188 13.6562434,24.1250039 14.96875,23.34375 C15.8750045,22.8124973 17.2031163,22.4687508 18.953125,22.3125 C18.7031237,21.8749978 18.578125,21.453127 18.578125,21.046875 C18.578125,20.8281239 18.5937498,20.6718755 18.625,20.578125 L18.4375,20.578125 C17.1249934,20.578125 16.0781289,20.1718791 15.296875,19.359375 C14.5468712,18.6093712 14.171875,17.7187552 14.171875,16.6875 C14.171875,15.3749934 14.7187445,14.2656295 15.8125,13.359375 C16.9687558,12.4531205 18.4531159,12 20.265625,12 L26.5,12 L23.6875,13.546875 L23.078125,13.546875 C23.7968786,14.3906292 24.15625,15.2968702 24.15625,16.265625 C24.15625,16.859378 24.0312513,17.3984351 23.78125,17.8828125 C23.5312487,18.3671899 23.2890637,18.7187489 23.0546875,18.9375 C22.8203113,19.1562511 22.4843772,19.4218734 22.046875,19.734375 L22.046875,19.78125 C21.7031233,20.1250017 21.53125,20.3906241 21.53125,20.578125 C21.53125,20.7968761 21.6874984,21.0312487 22,21.28125 L22.84375,21.9375 Z M16.984375,15.5625 C16.984375,16.3750041 17.2031228,17.1718711 17.640625,17.953125 C18.1406275,18.7968792 18.7812461,19.21875 19.5625,19.21875 C20.0937527,19.21875 20.5312483,19.0468767 20.875,18.703125 C21.1875016,18.3906234 21.34375,17.9218781 21.34375,17.296875 C21.34375,16.4531208 21.1093773,15.6093792 20.640625,14.765625 C20.1718727,13.9218708 19.5468789,13.5 18.765625,13.5 C18.2031222,13.5 17.7500017,13.703123 17.40625,14.109375 C17.1249986,14.4531267 16.984375,14.9374969 16.984375,15.5625 Z M22.65625,26.25 C22.65625,25.8124978 22.5000016,25.4218767 22.1875,25.078125 C21.8749984,24.7343733 21.2500047,24.2500031 20.3125,23.625 C20.2812498,23.625 20.2265629,23.6171876 20.1484375,23.6015625 C20.0703121,23.5859374 20.0000003,23.578125 19.9375,23.578125 C19.1249959,23.578125 18.3281289,23.7031237 17.546875,23.953125 C16.3906192,24.3906272 15.8125,25.0468706 15.8125,25.921875 C15.8125,26.6406286 16.1562466,27.2187478 16.84375,27.65625 C17.5312534,28.0937522 18.4374944,28.3125 19.5625,28.3125 C20.5312548,28.3125 21.2890598,28.1250019 21.8359375,27.75 C22.3828152,27.3749981 22.65625,26.8750031 22.65625,26.25 Z" transform="translate(-13 -12)"/>
</svg>
