<svg xmlns="http://www.w3.org/2000/svg" width="25" height="30" viewBox="0 0 25 30">
  <g fill="#333333">
    <path d="M4.18587549 13.1361479C3.3859144 13.1361479 3.3859144 14.3788716 4.18587549 14.3788716L13.7432685 14.3788716C14.5446304 14.3788716 14.5446304 13.1361479 13.7432685 13.1361479L4.18587549 13.1361479zM13.7432685 16.0743969L4.18587549 16.0743969C3.3859144 16.0743969 3.3859144 17.3157198 4.18587549 17.3157198L13.7432685 17.3157198C14.5447471 17.3157198 14.5447471 16.0743969 13.7432685 16.0743969zM13.7432685 18.7958755L4.18587549 18.7958755C3.3859144 18.7958755 3.3859144 20.0370817 4.18587549 20.0370817L13.7432685 20.0370817C14.5447471 20.036965 14.5447471 18.7958755 13.7432685 18.7958755zM13.7432685 21.7335409L4.18587549 21.7335409C3.3859144 21.7335409 3.3859144 22.9742802 4.18587549 22.9742802L13.7432685 22.9742802C14.5447471 22.9741634 14.5447471 21.7335409 13.7432685 21.7335409zM13.5607004 24.5059144L4.00155642 24.5059144C3.20217899 24.5059144 3.20217899 25.7471206 4.00155642 25.7471206L13.5607004 25.7471206C14.3597276 25.7470039 14.3597276 24.5059144 13.5607004 24.5059144z"/>
    <path d="M0.0422568093,6.78058366 L0.0422568093,29.9544747 L17.887821,29.9544747 L17.887821,9.99571984 L14.5719455,6.78058366 L0.0422568093,6.78058366 L0.0422568093,6.78058366 Z M16.3454475,28.4116342 L1.58579767,28.4116342 L1.58579767,8.32354086 L13.7775875,8.32354086 L13.7775875,10.7714008 L16.3442802,10.7714008 L16.3442802,28.4116342 L16.3454475,28.4116342 Z"/>
    <polygon points="3.059 3.23 3.059 5.912 4.602 5.912 4.602 4.772 16.795 4.772 16.795 7.22 19.362 7.22 19.362 24.86 18.684 24.86 18.684 26.403 20.905 26.403 20.905 6.444 17.589 3.23"/>
    <polygon points="20.759 0 6.229 0 6.229 2.683 7.772 2.683 7.772 1.543 19.965 1.543 19.965 3.991 22.532 3.991 22.532 21.631 21.855 21.631 21.855 23.174 24.076 23.174 24.076 3.215"/>
  </g>
</svg>
