<svg xmlns="http://www.w3.org/2000/svg" width="27" height="30" viewBox="0 0 27 30">
  <g fill="none">
    <path fill="#E2574C" d="M1.9023871,0 L17.7956129,0 L26.2197097,8.3913871 L26.2197097,28.0585161 C26.2197097,29.0919677 25.3817419,29.9290645 24.3491613,29.9290645 L1.9023871,29.9290645 C0.869806452,29.9290645 0.0318387097,29.0919677 0.0318387097,28.0585161 L0.0318387097,1.87054839 C0.0318387097,0.837096774 0.869903226,0 1.9023871,0 Z"/>
    <path fill="#B53629" d="M26.1927097,8.41751613 L19.6728387,8.41751613 C18.6402581,8.41751613 17.8022903,7.57954839 17.8022903,6.54696774 L17.8022903,0.0186774194 L26.1927097,8.41751613 Z"/>
    <path fill="#FFFFFF" d="M19.2032903,14.1816774 C19.5166452,14.1816774 19.6700323,13.9085806 19.6700323,13.6439032 C19.6700323,13.3698387 19.5100645,13.1051613 19.2032903,13.1051613 L17.4187742,13.1051613 C17.0699032,13.1051613 16.8753871,13.394129 16.8753871,13.7130968 L16.8753871,18.0986129 C16.8753871,18.4895806 17.0979677,18.7065484 17.399129,18.7065484 C17.6984516,18.7065484 17.922,18.4895806 17.922,18.0986129 L17.922,16.8949355 L19.0013226,16.8949355 C19.3361613,16.8949355 19.5035806,16.620871 19.5035806,16.3487419 C19.5035806,16.0822258 19.3361613,15.8174516 19.0013226,15.8174516 L17.922,15.8174516 L17.922,14.1816774 C17.922,14.1816774 19.2032903,14.1816774 19.2032903,14.1816774 Z M13.1716452,13.1051613 L11.8659677,13.1051613 C11.5114839,13.1051613 11.259871,13.3483548 11.259871,13.7093226 L11.259871,18.1023871 C11.259871,18.5503548 11.6218065,18.6906774 11.880871,18.6906774 L13.2510968,18.6906774 C14.8728387,18.6906774 15.9437419,17.6235484 15.9437419,15.9764516 C15.942871,14.235 14.9346774,13.1051613 13.1716452,13.1051613 Z M13.2343548,17.6076774 L12.4383871,17.6076774 L12.4383871,14.1882581 L13.1557742,14.1882581 C14.2416774,14.1882581 14.7139355,14.916871 14.7139355,15.9222581 C14.7139355,16.8631935 14.25,17.6076774 13.2343548,17.6076774 Z M8.45129032,13.1051613 L7.15780645,13.1051613 C6.79209677,13.1051613 6.58819355,13.3464194 6.58819355,13.7130968 L6.58819355,18.0986129 C6.58819355,18.4895806 6.822,18.7065484 7.13622581,18.7065484 C7.45045161,18.7065484 7.68425806,18.4895806 7.68425806,18.0986129 L7.68425806,16.8181935 L8.49512903,16.8181935 C9.49587097,16.8181935 10.3217419,16.1092258 10.3217419,14.969129 C10.3218387,13.8534194 9.525,13.1051613 8.45129032,13.1051613 Z M8.42980645,15.7894839 L7.68435484,15.7894839 L7.68435484,14.1349355 L8.42980645,14.1349355 C8.88996774,14.1349355 9.18270968,14.4940645 9.18270968,14.9626452 C9.18174194,15.4303548 8.88996774,15.7894839 8.42980645,15.7894839 Z"/>
  </g>
</svg>
