<svg xmlns="http://www.w3.org/2000/svg" width="13" height="13" viewBox="0 0 13 13">
  <path fill="#333333" fill-rule="evenodd" d="M1323.125,1380 C1324.82032,1380 1326.26497,1380.597 1327.45898,1381.79102 C1328.653,1382.98503 1329.25,1384.42968 1329.25,1386.125 C1329.25,1387.82032 1328.653,1389.26497 1327.45898,1390.45898 C1326.26497,1391.653 1324.82032,1392.25 1323.125,1392.25 C1321.42968,1392.25 1319.98503,1391.653 1318.79102,1390.45898 C1317.597,1389.26497 1317,1387.82032 1317,1386.125 C1317,1384.42968 1317.597,1382.98503 1318.79102,1381.79102 C1319.98503,1380.597 1321.42968,1380 1323.125,1380 Z M1326.26953,1384.07422 C1326.28776,1384.05599 1326.29688,1384.02865 1326.29688,1383.99219 C1326.29688,1383.9375 1326.28776,1383.90104 1326.26953,1383.88281 L1325.42188,1383.22656 C1325.40365,1383.20833 1325.36719,1383.19922 1325.3125,1383.19922 C1325.27604,1383.19922 1325.2487,1383.20833 1325.23047,1383.22656 L1322.19531,1387.13672 C1321.39323,1386.37109 1320.98307,1385.97917 1320.96484,1385.96094 C1320.91016,1385.90625 1320.85547,1385.87891 1320.80078,1385.87891 C1320.78255,1385.87891 1320.74609,1385.90625 1320.69141,1385.96094 L1319.98047,1386.67188 C1319.96224,1386.6901 1319.95312,1386.72656 1319.95312,1386.78125 C1319.95312,1386.81771 1319.96224,1386.84505 1319.98047,1386.86328 L1320.03516,1386.89062 C1321.45704,1388.25782 1322.17708,1388.95052 1322.19531,1388.96875 C1322.25,1389.02344 1322.29557,1389.05078 1322.33203,1389.05078 C1322.36849,1389.05078 1322.41406,1389.02344 1322.46875,1388.96875 L1326.26953,1384.07422 Z" transform="translate(-1317 -1380)"/>
</svg>
