<svg xmlns="http://www.w3.org/2000/svg" width="134" height="124" viewBox="0 0 134 124">
  <path fill="none" stroke="#333333" stroke-width="3" d="M245.551594,173.145609 C248.887914,175.230809 250.347533,178.984113 249.930493,184.405634 C249.513453,190.869754 246.906991,196.49971 242.111031,201.295671 C241.902511,201.295671 241.798253,201.399929 241.798253,201.608449 L241.172696,201.921228 C233.040415,209.636468 223.240121,211.721637 211.77152,208.176797 C211.35448,207.759757 210.937447,207.55124 210.520407,207.55124 C208.643726,207.1342 207.288367,207.551234 206.454287,208.802354 L195.194262,221.000714 L228.661557,251.027446 C229.495637,251.653006 229.495637,252.382815 228.661557,253.216895 L213.022634,269.168597 C212.188554,269.794157 211.458745,269.794157 210.833185,269.168597 C201.658304,257.699996 191.962269,246.544342 181.744788,235.701301 L152.96917,266.353591 C150.67545,268.855831 147.808342,270.054803 144.367762,269.950543 C140.927182,269.846283 138.060075,268.647311 135.766354,266.353591 C133.472634,263.85135 132.325791,260.827855 132.325791,257.283015 C132.325791,253.738175 133.576893,250.923197 136.079133,248.837997 L166.418644,219.7496 L162.665302,215.996258 C161.622702,214.953658 161.518444,213.911074 162.352524,212.868474 L162.97808,211.304581 C159.0162,207.134181 155.888447,204.371332 153.594727,203.015952 C151.301006,201.660572 148.590287,201.087151 145.462487,201.295671 C139.832446,201.504191 134.828041,204.423427 130.449121,210.053468 C127.1128,214.223868 126.278733,220.687891 127.946893,229.445732 C128.155413,230.696852 127.946896,231.322403 127.321336,231.322403 C126.278736,231.322403 125.236151,230.696852 124.193551,229.445732 C122.316871,227.360532 121.013641,223.815745 120.283821,218.811264 C119.554001,213.806784 120.23168,207.655536 122.316881,200.357335 C126.070241,190.973935 131.074646,183.154551 137.330247,176.898951 C139.832487,174.396711 142.33469,172.207283 144.83693,170.330603 C145.67101,169.705043 147.130628,169.444397 149.215828,169.548657 C151.301028,169.652917 152.656388,169.392271 153.281948,168.766711 C154.324548,167.724111 154.845841,166.055976 154.845841,163.762255 L153.594727,162.511142 C152.760647,161.677061 152.760647,160.947252 153.594727,160.321692 L163.290859,150.62556 C163.916419,149.79148 164.646228,149.79148 165.480308,150.62556 L181.119231,166.264483 C181.953311,167.098563 181.953311,167.932631 181.119231,168.766711 L171.423099,178.462843 C170.797539,179.088403 170.06773,179.088403 169.23365,178.462843 L166.731422,175.647837 C164.020662,175.647837 162.248268,176.690421 161.414188,178.775622 C159.954548,181.903422 159.641773,185.34395 160.475853,189.097311 C161.101413,191.182511 164.854717,195.665624 171.735877,202.546785 L173.29977,201.608449 C174.55089,200.982889 175.593474,201.087148 176.427554,201.921228 C176.636074,202.338268 177.991434,203.797886 180.493674,206.300126 L192.379256,194.727323 C193.421856,193.893243 193.83889,192.537883 193.63037,190.661203 C193.63037,189.827123 193.526111,189.305831 193.317591,189.097311 C189.772751,177.21167 191.753661,167.202859 199.260382,159.070578 L199.885939,158.445022 C204.890419,153.440541 210.416117,150.729822 216.463197,150.312782 C218.131357,150.104262 220.216526,150.469166 222.718766,151.407506 C225.221007,152.345846 226.784883,153.544818 227.410443,155.004458 L212.397077,170.017825 L211.77152,170.95616 L211.458742,171.268938 C211.250222,171.477458 211.145963,171.894492 211.145963,172.520052 C211.145963,173.145612 211.250222,173.666905 211.458742,174.083945 L212.709856,175.335058 L225.533773,188.471754 L226.784886,189.722868 C226.993406,189.931388 227.41044,190.035646 228.036,190.035646 C228.66156,190.035646 229.078594,189.931388 229.287114,189.722868 L229.912671,189.410089 L230.538228,188.471754 L245.551594,173.145609 Z" transform="translate(-118 -148)"/>
</svg>
