<svg xmlns="http://www.w3.org/2000/svg" width="22" height="22" viewBox="0 0 22 22">
  <path fill="#E7560C" fill-rule="evenodd" d="M1218,40 C1216.47221,40 1215.17362,39.4652831 1214.10417,38.3958333 C1213.03472,37.3263835 1212.5,36.0277854 1212.5,34.5 C1212.5,32.9722146 1213.03472,31.6736165 1214.10417,30.6041667 C1215.17362,29.5347169 1216.47221,29 1218,29 C1219.52779,29 1220.82638,29.5347169 1221.89583,30.6041667 C1222.96528,31.6736165 1223.5,32.9722146 1223.5,34.5 C1223.5,36.0277854 1222.96528,37.3263835 1221.89583,38.3958333 C1220.82638,39.4652831 1219.52779,40 1218,40 Z M1218,42.75 C1220.29168,42.75 1222.6979,43.2560713 1225.21875,44.2682292 C1227.7396,45.280387 1229,46.6076307 1229,48.25 L1229,51 L1207,51 L1207,48.25 C1207,46.6076307 1208.2604,45.280387 1210.78125,44.2682292 C1213.3021,43.2560713 1215.70832,42.75 1218,42.75 Z" transform="translate(-1207 -29)"/>
</svg>
